<svg width="20" height="20" viewBox="0 0 20 20" fill="none" xmlns="http://www.w3.org/2000/svg">
<g id="carbon:send-filled">
<path id="Vector" d="M17.1562 9.44375L3.40624 2.56875C3.29847 2.51486 3.17742 2.49326 3.05766 2.50657C2.93791 2.51988 2.82455 2.56752 2.73124 2.64375C2.64213 2.71844 2.57562 2.8165 2.53918 2.92691C2.50275 3.03732 2.49783 3.1557 2.52499 3.26875L4.18124 9.375H11.25V10.625H4.18124L2.49999 16.7125C2.47451 16.8069 2.47153 16.906 2.4913 17.0018C2.51108 17.0975 2.55305 17.1873 2.61384 17.2639C2.67463 17.3405 2.75255 17.4018 2.84132 17.4428C2.9301 17.4838 3.02726 17.5034 3.12499 17.5C3.22283 17.4994 3.31916 17.4759 3.40624 17.4313L17.1562 10.5563C17.2586 10.5038 17.3445 10.4241 17.4045 10.326C17.4645 10.2278 17.4963 10.115 17.4963 10C17.4963 9.88497 17.4645 9.77218 17.4045 9.67403C17.3445 9.57589 17.2586 9.4962 17.1562 9.44375Z" fill="#9299A2"/>
</g>
</svg>
